<?xml version="1.0" encoding="utf-8" ?><svg baseProfile="full" height="108mm" version="1.1" viewBox="0 0 108 108" width="108mm" xmlns="http://www.w3.org/2000/svg" xmlns:ev="http://www.w3.org/2001/xml-events" xmlns:xlink="http://www.w3.org/1999/xlink"><defs /><path fill="none" stroke="black" stroke-width="0.1" d="M30,36 A 6 6 0 0,1 36 30 A 6 6 0 0,1 42 36 A 6 6 0 0,1 36 42 A 6 6 0 0,0 30 48 A 6 6 0 0,0 36 54 A 6 6 0 0,0 42 48 A 6 6 0 0,1 48 42 A 6 6 0 0,0 54 36 A 6 6 0 0,0 48 30 A 6 6 0 0,1 42 24 A 6 6 0 0,0 36 18 A 6 6 0 0,1 30 12 A 6 6 0 0,0 24 6 A 6 6 0 0,0 18 12 A 6 6 0 0,1 12 18 A 6 6 0 0,0 6 24 A 6 6 0 0,0 12 30 A 6 6 0 0,0 18 24 A 6 6 0 0,1 24 18 A 6 6 0 0,1 30 24 A 6 6 0 0,1 24 30 A 6 6 0 0,0 18 36 A 6 6 0 0,0 24 42 A 6 6 0 0,0 30 36 Z"></path><path fill="none" stroke="black" stroke-width="0.1" d="M66,12 A 6 6 0 0,1 60 18 A 6 6 0 0,1 54 12 A 6 6 0 0,0 48 6 A 6 6 0 0,0 42 12 A 6 6 0 0,0 48 18 A 6 6 0 0,1 54 24 A 6 6 0 0,0 60 30 A 6 6 0 0,1 66 36 A 6 6 0 0,1 60 42 A 6 6 0 0,0 54 48 A 6 6 0 0,1 48 54 A 6 6 0 0,0 42 60 A 6 6 0 0,0 48 66 A 6 6 0 0,1 54 72 A 6 6 0 0,1 60 66 A 6 6 0 0,1 54 60 A 6 6 0 0,1 60 54 A 6 6 0 0,0 66 48 A 6 6 0 0,1 72 42 A 6 6 0 0,0 78 36 A 6 6 0 0,1 84 30 A 6 6 0 0,0 90 24 A 6 6 0 0,0 84 18 A 6 6 0 0,0 78 24 A 6 6 0 0,1 72 30 A 6 6 0 0,1 66 24 A 6 6 0 0,1 72 18 A 6 6 0 0,0 78 12 A 6 6 0 0,0 72 6 A 6 6 0 0,0 66 12 Z"></path><path fill="none" stroke="black" stroke-width="0.1" d="M90,24 A 6 6 0 0,1 84 30 A 6 6 0 0,0 78 36 A 6 6 0 0,1 72 42 A 6 6 0 0,0 66 48 A 6 6 0 0,1 60 54 A 6 6 0 0,0 54 60 A 6 6 0 0,0 60 66 A 6 6 0 0,1 66 72 A 6 6 0 0,0 72 78 A 6 6 0 0,0 78 72 A 6 6 0 0,0 72 66 A 6 6 0 0,1 66 60 A 6 6 0 0,1 72 54 A 6 6 0 0,0 78 48 A 6 6 0 0,1 84 42 A 6 6 0 0,1 90 48 A 6 6 0 0,1 84 54 A 6 6 0 0,0 78 60 A 6 6 0 0,0 84 66 A 6 6 0 0,1 90 72 A 6 6 0 0,0 96 78 A 6 6 0 0,0 102 72 A 6 6 0 0,0 96 66 A 6 6 0 0,1 90 60 A 6 6 0 0,1 96 54 A 6 6 0 0,0 102 48 A 6 6 0 0,0 96 42 A 6 6 0 0,1 90 36 A 6 6 0 0,1 96 30 A 6 6 0 0,0 102 24 A 6 6 0 0,0 96 18 A 6 6 0 0,1 90 12 A 6 6 0 0,0 84 6 A 6 6 0 0,0 78 12 A 6 6 0 0,1 72 18 A 6 6 0 0,0 66 24 A 6 6 0 0,0 72 30 A 6 6 0 0,0 78 24 A 6 6 0 0,1 84 18 A 6 6 0 0,1 90 24 Z"></path><path fill="none" stroke="black" stroke-width="0.1" d="M96,78 A 6 6 0 0,1 90 72 A 6 6 0 0,0 84 66 A 6 6 0 0,1 78 60 A 6 6 0 0,1 84 54 A 6 6 0 0,0 90 48 A 6 6 0 0,0 84 42 A 6 6 0 0,0 78 48 A 6 6 0 0,1 72 54 A 6 6 0 0,0 66 60 A 6 6 0 0,0 72 66 A 6 6 0 0,1 78 72 A 6 6 0 0,1 72 78 A 6 6 0 0,1 66 72 A 6 6 0 0,0 60 66 A 6 6 0 0,0 54 72 A 6 6 0 0,1 48 78 A 6 6 0 0,1 42 72 A 6 6 0 0,0 36 66 A 6 6 0 0,0 30 72 A 6 6 0 0,0 36 78 A 6 6 0 0,1 42 84 A 6 6 0 0,1 36 90 A 6 6 0 0,1 30 84 A 6 6 0 0,0 24 78 A 6 6 0 0,0 18 84 A 6 6 0 0,0 24 90 A 6 6 0 0,1 30 96 A 6 6 0 0,0 36 102 A 6 6 0 0,0 42 96 A 6 6 0 0,1 48 90 A 6 6 0 0,0 54 84 A 6 6 0 0,1 60 78 A 6 6 0 0,1 66 84 A 6 6 0 0,1 60 90 A 6 6 0 0,0 54 96 A 6 6 0 0,0 60 102 A 6 6 0 0,0 66 96 A 6 6 0 0,1 72 90 A 6 6 0 0,1 78 96 A 6 6 0 0,0 84 102 A 6 6 0 0,0 90 96 A 6 6 0 0,0 84 90 A 6 6 0 0,1 78 84 A 6 6 0 0,1 84 78 A 6 6 0 0,1 90 84 A 6 6 0 0,0 96 90 A 6 6 0 0,0 102 84 A 6 6 0 0,0 96 78 Z"></path><path fill="none" stroke="black" stroke-width="0.1" d="M18,36 A 6 6 0 0,1 24 30 A 6 6 0 0,0 30 24 A 6 6 0 0,0 24 18 A 6 6 0 0,0 18 24 A 6 6 0 0,1 12 30 A 6 6 0 0,0 6 36 A 6 6 0 0,0 12 42 A 6 6 0 0,1 18 48 A 6 6 0 0,0 24 54 A 6 6 0 0,1 30 60 A 6 6 0 0,1 24 66 A 6 6 0 0,1 18 60 A 6 6 0 0,0 12 54 A 6 6 0 0,0 6 60 A 6 6 0 0,0 12 66 A 6 6 0 0,1 18 72 A 6 6 0 0,1 12 78 A 6 6 0 0,0 6 84 A 6 6 0 0,0 12 90 A 6 6 0 0,1 18 96 A 6 6 0 0,0 24 102 A 6 6 0 0,0 30 96 A 6 6 0 0,0 24 90 A 6 6 0 0,1 18 84 A 6 6 0 0,1 24 78 A 6 6 0 0,1 30 84 A 6 6 0 0,0 36 90 A 6 6 0 0,0 42 84 A 6 6 0 0,0 36 78 A 6 6 0 0,1 30 72 A 6 6 0 0,1 36 66 A 6 6 0 0,1 42 72 A 6 6 0 0,0 48 78 A 6 6 0 0,0 54 72 A 6 6 0 0,0 48 66 A 6 6 0 0,1 42 60 A 6 6 0 0,1 48 54 A 6 6 0 0,0 54 48 A 6 6 0 0,1 60 42 A 6 6 0 0,0 66 36 A 6 6 0 0,0 60 30 A 6 6 0 0,1 54 24 A 6 6 0 0,0 48 18 A 6 6 0 0,1 42 12 A 6 6 0 0,0 36 6 A 6 6 0 0,0 30 12 A 6 6 0 0,0 36 18 A 6 6 0 0,1 42 24 A 6 6 0 0,0 48 30 A 6 6 0 0,1 54 36 A 6 6 0 0,1 48 42 A 6 6 0 0,0 42 48 A 6 6 0 0,1 36 54 A 6 6 0 0,1 30 48 A 6 6 0 0,1 36 42 A 6 6 0 0,0 42 36 A 6 6 0 0,0 36 30 A 6 6 0 0,0 30 36 A 6 6 0 0,1 24 42 A 6 6 0 0,1 18 36 Z"></path><path fill="none" stroke="black" stroke-width="0.1" d="M4,0 H 104A 4 4 0 0,1 108 4 V 104A 4 4 0 0,1 104 108 H 4A 4 4 0 0,1 0 104 V 4A 4 4 0 0,1 4 0 Z"></path></svg>